<svg width="900" height="1180" viewBox="0 0 900 1180" xmlns="http://www.w3.org/2000/svg">
  <title>Aaron — Application Developer, Switzerland</title>
  <desc>
    Aaron. Application Developer, Switzerland, working best after dark.
    Frontend: TypeScript, React, Next.js, Angular, Stencil, Sass.
    Backend: Java, Golang, Nest.js, SQL, MongoDB, MariaDB.
    Cloud and DevOps: Kubernetes, Docker, IaC, AWS.
    Tools: Git, GitHub, VS Code.
    Mission: learn, build, break, fix, repeat. Keep building.
  </desc>

  <defs>
    <linearGradient id="bg" x1="0" y1="0" x2="0" y2="1">
      <stop offset="0%" stop-color="#0a0a0a"/>
      <stop offset="55%" stop-color="#141414"/>
      <stop offset="100%" stop-color="#050505"/>
    </linearGradient>

    <radialGradient id="glow" cx="50%" cy="8%" r="55%">
      <stop offset="0%" stop-color="#b8b8b8" stop-opacity="0.28"/>
      <stop offset="45%" stop-color="#858585" stop-opacity="0.12"/>
      <stop offset="100%" stop-color="#858585" stop-opacity="0"/>
    </radialGradient>

    <linearGradient id="thunderFade" x1="0" y1="0" x2="0" y2="1">
      <stop offset="0%" stop-color="#ffffff"/>
      <stop offset="42%" stop-color="#ffffff"/>
      <stop offset="68%" stop-color="#777777"/>
      <stop offset="100%" stop-color="#000000"/>
    </linearGradient>

    <mask id="thunderMask" maskUnits="userSpaceOnUse" x="0" y="0" width="900" height="1180">
      <rect width="900" height="1180" fill="url(#thunderFade)"/>
    </mask>

    <filter id="textGlow" x="-50%" y="-50%" width="200%" height="200%">
      <feGaussianBlur stdDeviation="4" result="blur"/>
      <feMerge>
        <feMergeNode in="blur"/>
        <feMergeNode in="SourceGraphic"/>
      </feMerge>
    </filter>

    <!-- inline vector icons (exact simple-icons path data); no external refs so GitHub's SVG sanitizer can't strip them -->
    <symbol id="icoReact" viewBox="0 0 24 24"><path d="M14.23 12.004a2.236 2.236 0 0 1-2.235 2.236 2.236 2.236 0 0 1-2.236-2.236 2.236 2.236 0 0 1 2.235-2.236 2.236 2.236 0 0 1 2.236 2.236zm2.648-10.69c-1.346 0-3.107.96-4.888 2.622-1.78-1.653-3.542-2.602-4.887-2.602-.41 0-.783.093-1.106.278-1.375.793-1.683 3.264-.973 6.365C1.98 8.917 0 10.42 0 12.004c0 1.59 1.99 3.097 5.043 4.03-.704 3.113-.39 5.588.988 6.38.32.187.69.275 1.102.275 1.345 0 3.107-.96 4.888-2.624 1.78 1.654 3.542 2.603 4.887 2.603.41 0 .783-.09 1.106-.275 1.374-.792 1.683-3.263.973-6.365C22.02 15.096 24 13.59 24 12.004c0-1.59-1.99-3.097-5.043-4.032.704-3.11.39-5.587-.988-6.38-.318-.184-.688-.277-1.092-.278zm-.005 1.09v.006c.225 0 .406.044.558.127.666.382.955 1.835.73 3.704-.054.46-.142.945-.25 1.44-.96-.236-2.006-.417-3.107-.534-.66-.905-1.345-1.727-2.035-2.447 1.592-1.48 3.087-2.292 4.105-2.295zm-9.77.02c1.012 0 2.514.808 4.11 2.28-.686.72-1.37 1.537-2.02 2.442-1.107.117-2.154.298-3.113.538-.112-.49-.195-.964-.254-1.42-.23-1.868.054-3.32.714-3.707.19-.09.4-.127.563-.132zm4.882 3.05c.455.468.91.992 1.36 1.564-.44-.02-.89-.034-1.345-.034-.46 0-.915.01-1.36.034.44-.572.895-1.096 1.345-1.565zM12 8.1c.74 0 1.477.034 2.202.093.406.582.802 1.203 1.183 1.86.372.64.71 1.29 1.018 1.946-.308.655-.646 1.31-1.013 1.95-.38.66-.773 1.288-1.18 1.87-.728.063-1.466.098-2.21.098-.74 0-1.477-.035-2.202-.093-.406-.582-.802-1.204-1.183-1.86-.372-.64-.71-1.29-1.018-1.946.303-.657.646-1.313 1.013-1.954.38-.66.773-1.286 1.18-1.868.728-.064 1.466-.098 2.21-.098zm-3.635.254c-.24.377-.48.763-.704 1.16-.225.39-.435.782-.635 1.174-.265-.656-.49-1.31-.676-1.947.64-.15 1.315-.283 2.015-.386zm7.26 0c.695.103 1.365.23 2.006.387-.18.632-.405 1.282-.66 1.933-.2-.39-.41-.783-.64-1.174-.225-.392-.465-.774-.705-1.146zm3.063.675c.484.15.944.317 1.375.498 1.732.74 2.852 1.708 2.852 2.476-.005.768-1.125 1.74-2.857 2.475-.42.18-.88.342-1.355.493-.28-.958-.646-1.956-1.1-2.98.45-1.017.81-2.01 1.085-2.964zm-13.395.004c.278.96.645 1.957 1.1 2.98-.45 1.017-.812 2.01-1.086 2.964-.484-.15-.944-.318-1.37-.5-1.732-.737-2.852-1.706-2.852-2.474 0-.768 1.12-1.742 2.852-2.476.42-.18.88-.342 1.356-.494zm11.678 4.28c.265.657.49 1.312.676 1.948-.64.157-1.316.29-2.016.39.24-.375.48-.762.705-1.158.225-.39.435-.788.636-1.18zm-9.945.02c.2.392.41.783.64 1.175.23.39.465.772.705 1.143-.695-.102-1.365-.23-2.006-.386.18-.63.406-1.282.66-1.933zM17.92 16.32c.112.493.2.968.254 1.423.23 1.868-.054 3.32-.714 3.708-.147.09-.338.128-.563.128-1.012 0-2.514-.807-4.11-2.28.686-.72 1.37-1.536 2.02-2.44 1.107-.118 2.154-.3 3.113-.54zm-11.83.01c.96.234 2.006.415 3.107.532.66.905 1.345 1.727 2.035 2.446-1.595 1.483-3.092 2.295-4.11 2.295-.22-.005-.406-.05-.553-.132-.666-.38-.955-1.834-.73-3.703.054-.46.142-.944.25-1.438zm4.56.64c.44.02.89.034 1.345.034.46 0 .915-.01 1.36-.034-.44.572-.895 1.095-1.345 1.565-.455-.47-.91-.993-1.36-1.565z" fill="currentColor"/></symbol>
    <symbol id="icoTypescript" viewBox="0 0 24 24"><path d="M1.125 0C.502 0 0 .502 0 1.125v21.75C0 23.498.502 24 1.125 24h21.75c.623 0 1.125-.502 1.125-1.125V1.125C24 .502 23.498 0 22.875 0zm17.363 9.75c.612 0 1.154.037 1.627.111a6.38 6.38 0 0 1 1.306.34v2.458a3.95 3.95 0 0 0-.643-.361 5.093 5.093 0 0 0-.717-.26 5.453 5.453 0 0 0-1.426-.2c-.3 0-.573.028-.819.086a2.1 2.1 0 0 0-.623.242c-.17.104-.3.229-.393.374a.888.888 0 0 0-.14.49c0 .196.053.373.156.529.104.156.252.304.443.444s.423.276.696.41c.273.135.582.274.926.416.47.197.892.407 1.266.628.374.222.695.473.963.753.268.279.472.598.614.957.142.359.214.776.214 1.253 0 .657-.125 1.21-.373 1.656a3.033 3.033 0 0 1-1.012 1.085 4.38 4.38 0 0 1-1.487.596c-.566.12-1.163.18-1.79.18a9.916 9.916 0 0 1-1.84-.164 5.544 5.544 0 0 1-1.512-.493v-2.63a5.033 5.033 0 0 0 3.237 1.2c.333 0 .624-.03.872-.09.249-.06.456-.144.623-.25.166-.108.29-.234.373-.38a1.023 1.023 0 0 0-.074-1.089 2.12 2.12 0 0 0-.537-.5 5.597 5.597 0 0 0-.807-.444 27.72 27.72 0 0 0-1.007-.436c-.918-.383-1.602-.852-2.053-1.405-.45-.553-.676-1.222-.676-2.005 0-.614.123-1.141.369-1.582.246-.441.58-.804 1.004-1.089a4.494 4.494 0 0 1 1.47-.629 7.536 7.536 0 0 1 1.77-.201zm-15.113.188h9.563v2.166H9.506v9.646H6.789v-9.646H3.375z" fill="currentColor"/></symbol>
    <symbol id="icoAngular" viewBox="0 0 24 24"><path d="M16.712 17.711H7.288l-1.204 2.916L12 24l5.916-3.373-1.204-2.916ZM14.692 0l7.832 16.855.814-12.856L14.692 0ZM9.308 0 .662 3.999l.814 12.856L9.308 0Zm-.405 13.93h6.198L12 6.396 8.903 13.93Z" fill="currentColor"/></symbol>
    <symbol id="icoNextjs" viewBox="0 0 24 24"><path d="M18.665 21.978C16.758 23.255 14.465 24 12 24 5.377 24 0 18.623 0 12S5.377 0 12 0s12 5.377 12 12c0 3.583-1.574 6.801-4.067 9.001L9.219 7.2H7.2v9.596h1.615V9.251l9.85 12.727Zm-3.332-8.533 1.6 2.061V7.2h-1.6v6.245Z" fill="currentColor"/></symbol>
    <symbol id="icoStencil" viewBox="0 0 24 24"><path d="M8.85 15.66h9.25l-5 5.34H3.9ZM24 9.328H4.997L0 14.672h19.003ZM10.884 3H20.1l-4.977 5.34H5.9Z" fill="currentColor"/></symbol>
    <symbol id="icoSass" viewBox="0 0 24 24"><path d="M12 0c6.627 0 12 5.373 12 12s-5.373 12-12 12S0 18.627 0 12 5.373 0 12 0zM9.615 15.998c.175.645.156 1.248-.024 1.792l-.065.18c-.024.061-.052.12-.078.176-.14.29-.326.56-.555.81-.698.759-1.672 1.047-2.09.805-.45-.262-.226-1.335.584-2.19.871-.918 2.12-1.509 2.12-1.509v-.003l.108-.061zm9.911-10.861c-.542-2.133-4.077-2.834-7.422-1.645-1.989.707-4.144 1.818-5.693 3.267C4.568 8.48 4.275 9.98 4.396 10.607c.427 2.211 3.457 3.657 4.703 4.73v.006c-.367.18-3.056 1.529-3.686 2.925-.675 1.47.105 2.521.615 2.655 1.575.436 3.195-.36 4.065-1.649.84-1.261.766-2.881.404-3.676.496-.135 1.08-.195 1.83-.104 2.101.24 2.521 1.56 2.43 2.1-.09.539-.523.854-.674.944-.15.091-.195.12-.181.181.015.09.091.09.21.075.165-.03 1.096-.45 1.141-1.471.045-1.29-1.186-2.729-3.375-2.7-.9.016-1.471.091-1.875.256-.03-.045-.061-.075-.105-.105-1.35-1.455-3.855-2.475-3.75-4.41.03-.705.285-2.564 4.8-4.814 3.705-1.846 6.661-1.335 7.171-.21.733 1.604-1.576 4.59-5.431 5.024-1.47.165-2.235-.404-2.431-.615-.209-.225-.239-.24-.314-.194-.12.06-.045.255 0 .375.12.3.585.825 1.396 1.095.704.225 2.43.359 4.5-.45 2.324-.899 4.139-3.405 3.614-5.505l.073.067z" fill="currentColor"/></symbol>
    <symbol id="icoJava" viewBox="0 0 24 24"><path d="M11.915 0 11.7.215C9.515 2.4 7.47 6.39 6.046 10.483c-1.064 1.024-3.633 2.81-3.711 3.551-.093.87 1.746 2.611 1.55 3.235-.198.625-1.304 1.408-1.014 1.939.1.188.823.011 1.277-.491a13.389 13.389 0 0 0-.017 2.14c.076.906.27 1.668.643 2.232.372.563.956.911 1.667.911.397 0 .727-.114 1.024-.264.298-.149.571-.33.91-.5.68-.34 1.634-.666 3.53-.604 1.903.062 2.872.39 3.559.704.687.314 1.15.664 1.925.664.767 0 1.395-.336 1.807-.9.412-.563.631-1.33.72-2.24.06-.623.055-1.32 0-2.066.454.45 1.117.604 1.213.424.29-.53-.816-1.314-1.013-1.937-.198-.624 1.642-2.366 1.549-3.236-.08-.748-2.707-2.568-3.748-3.586C16.428 6.374 14.308 2.394 12.13.215zm.175 6.038a2.95 2.95 0 0 1 2.943 2.942 2.95 2.95 0 0 1-2.943 2.943A2.95 2.95 0 0 1 9.148 8.98a2.95 2.95 0 0 1 2.942-2.942zM8.685 7.983a3.515 3.515 0 0 0-.145.997c0 1.951 1.6 3.55 3.55 3.55 1.95 0 3.55-1.598 3.55-3.55 0-.329-.046-.648-.132-.951.334.095.64.208.915.336a42.699 42.699 0 0 1 2.042 5.829c.678 2.545 1.01 4.92.846 6.607-.082.844-.29 1.51-.606 1.94-.315.431-.713.651-1.315.651-.593 0-.932-.27-1.673-.61-.741-.338-1.825-.694-3.792-.758-1.974-.064-3.073.293-3.821.669-.375.188-.659.373-.911.5s-.466.2-.752.2c-.53 0-.876-.209-1.16-.64-.285-.43-.474-1.101-.545-1.948-.141-1.693.176-4.069.823-6.614a43.155 43.155 0 0 1 1.934-5.783c.348-.167.749-.31 1.192-.425zm-3.382 4.362a.216.216 0 0 1 .13.031c-.166.56-.323 1.116-.463 1.665a33.849 33.849 0 0 0-.547 2.555 3.9 3.9 0 0 0-.2-.39c-.58-1.012-.914-1.642-1.16-2.08.315-.24 1.679-1.755 2.24-1.781zm13.394.01c.562.027 1.926 1.543 2.24 1.783-.246.438-.58 1.068-1.16 2.08a4.428 4.428 0 0 0-.163.309 32.354 32.354 0 0 0-.562-2.49 40.579 40.579 0 0 0-.482-1.652.216.216 0 0 1 .127-.03z" fill="currentColor"/></symbol>
    <symbol id="icoGolang" viewBox="0 0 24 24"><path d="M1.811 10.231c-.047 0-.058-.023-.035-.059l.246-.315c.023-.035.081-.058.128-.058h4.172c.046 0 .058.035.035.07l-.199.303c-.023.036-.082.07-.117.07zM.047 11.306c-.047 0-.059-.023-.035-.058l.245-.316c.023-.035.082-.058.129-.058h5.328c.047 0 .07.035.058.07l-.093.28c-.012.047-.058.07-.105.07zm2.828 1.075c-.047 0-.059-.035-.035-.07l.163-.292c.023-.035.07-.07.117-.07h2.337c.047 0 .07.035.07.082l-.023.28c0 .047-.047.082-.082.082zm12.129-2.36c-.736.187-1.239.327-1.963.514-.176.046-.187.058-.34-.117-.174-.199-.303-.327-.548-.444-.737-.362-1.45-.257-2.115.175-.795.514-1.204 1.274-1.192 2.22.011.935.654 1.706 1.577 1.835.795.105 1.46-.175 1.987-.77.105-.13.198-.27.315-.434H10.47c-.245 0-.304-.152-.222-.35.152-.362.432-.97.596-1.274a.315.315 0 01.292-.187h4.253c-.023.316-.023.631-.07.947a4.983 4.983 0 01-.958 2.29c-.841 1.11-1.94 1.8-3.33 1.986-1.145.152-2.209-.07-3.143-.77-.865-.655-1.356-1.52-1.484-2.595-.152-1.274.222-2.419.993-3.424.83-1.086 1.928-1.776 3.272-2.02 1.098-.2 2.15-.07 3.096.571.62.41 1.063.97 1.356 1.648.07.105.023.164-.117.2m3.868 6.461c-1.064-.024-2.034-.328-2.852-1.029a3.665 3.665 0 01-1.262-2.255c-.21-1.32.152-2.489.947-3.529.853-1.122 1.881-1.706 3.272-1.95 1.192-.21 2.314-.095 3.33.595.923.63 1.496 1.484 1.648 2.605.198 1.578-.257 2.863-1.344 3.962-.771.783-1.718 1.273-2.805 1.495-.315.06-.63.07-.934.106zm2.78-4.72c-.011-.153-.011-.27-.034-.387-.21-1.157-1.274-1.81-2.384-1.554-1.087.245-1.788.935-2.045 2.033-.21.912.234 1.835 1.075 2.21.643.28 1.285.244 1.905-.07.923-.48 1.425-1.228 1.484-2.233z" fill="currentColor"/></symbol>
    <symbol id="icoNestjs" viewBox="0 0 24 24"><path d="M14.131.047c-.173 0-.334.037-.483.087.316.21.49.49.576.806.007.043.019.074.025.117a.681.681 0 0 1 .013.112c.024.545-.143.614-.26.936-.18.415-.13.861.086 1.22a.74.74 0 0 0 .074.137c-.235-1.568 1.073-1.803 1.314-2.293.019-.428-.334-.713-.613-.911a1.37 1.37 0 0 0-.732-.21zM16.102.4c-.024.143-.006.106-.012.18-.006.05-.006.112-.012.161-.013.05-.025.1-.044.149-.012.05-.03.1-.05.149l-.067.142c-.02.025-.031.05-.05.075l-.037.055a2.152 2.152 0 0 1-.093.124c-.037.038-.068.081-.112.112v.006c-.037.031-.074.068-.118.1-.13.099-.278.173-.415.266-.043.03-.087.056-.124.093a.906.906 0 0 0-.118.099c-.043.037-.074.074-.111.118-.031.037-.068.08-.093.124a1.582 1.582 0 0 0-.087.13c-.025.05-.043.093-.068.142-.019.05-.037.093-.05.143a2.007 2.007 0 0 0-.043.155c-.006.025-.006.056-.012.08-.007.025-.007.05-.013.075 0 .05-.006.105-.006.155 0 .037 0 .074.006.111 0 .05.006.1.019.155.006.05.018.1.03.15.02.049.032.098.05.148.013.03.031.062.044.087l-1.426-.552c-.241-.068-.477-.13-.719-.186l-.39-.093c-.372-.074-.75-.13-1.128-.167-.013 0-.019-.006-.031-.006A11.082 11.082 0 0 0 8.9 2.855c-.378.025-.756.074-1.134.136a12.45 12.45 0 0 0-.837.174l-.279.074c-.092.037-.18.08-.266.118l-.205.093c-.012.006-.024.006-.03.012-.063.031-.118.056-.174.087a2.738 2.738 0 0 0-.236.118c-.043.018-.086.043-.124.062a.559.559 0 0 1-.055.03c-.056.032-.112.063-.162.094a1.56 1.56 0 0 0-.148.093c-.044.03-.087.055-.124.086-.006.007-.013.007-.019.013-.037.025-.08.056-.118.087l-.012.012-.093.074c-.012.007-.025.019-.037.025-.031.025-.062.056-.093.08-.006.013-.019.02-.025.025-.037.038-.074.069-.111.106-.007 0-.007.006-.013.012a1.742 1.742 0 0 0-.111.106c-.007.006-.007.012-.013.012a1.454 1.454 0 0 0-.093.1c-.012.012-.03.024-.043.036a1.374 1.374 0 0 1-.106.112c-.006.012-.018.019-.024.03-.05.05-.093.1-.143.15l-.018.018c-.1.106-.205.211-.317.304-.111.1-.229.192-.347.273a3.777 3.777 0 0 1-.762.421c-.13.056-.267.106-.403.149-.26.056-.527.161-.756.18-.05 0-.105.012-.155.018l-.155.037-.149.056c-.05.019-.099.044-.148.068-.044.031-.093.056-.137.087a1.011 1.011 0 0 0-.124.106c-.043.03-.087.074-.124.111-.037.043-.074.08-.105.124-.031.05-.068.093-.093.143a1.092 1.092 0 0 0-.087.142c-.025.056-.05.106-.068.161-.019.05-.037.106-.056.161-.012.05-.025.1-.03.15 0 .005-.007.012-.007.018-.012.056-.012.13-.019.167C.006 7.95 0 7.986 0 8.03a.657.657 0 0 0 .074.31v.006c.019.037.044.075.069.112.024.037.05.074.08.111.031.031.068.069.106.1a.906.906 0 0 0 .117.099c.149.13.186.173.378.272.031.019.062.031.1.05.006 0 .012.006.018.006 0 .013 0 .019.006.031a1.272 1.272 0 0 0 .08.298c.02.037.032.074.05.111.007.013.013.025.02.031.024.05.049.093.073.137l.093.13c.031.037.069.08.106.118.037.037.074.068.118.105 0 0 .006.006.012.006.037.031.074.062.112.087a.986.986 0 0 0 .136.08c.043.025.093.05.142.069a.73.73 0 0 0 .124.043c.007.006.013.006.025.012.025.007.056.013.08.019-.018.335-.024.65.026.762.055.124.328-.254.6-.688-.036.428-.061.93 0 1.079.069.155.44-.329.763-.862 4.395-1.016 8.405 2.02 8.826 6.31-.08-.67-.905-1.041-1.283-.948-.186.458-.502 1.047-1.01 1.413.043-.41.025-.83-.062-1.24a4.009 4.009 0 0 1-.769 1.562c-.588.043-1.177-.242-1.487-.67-.025-.018-.031-.055-.05-.08-.018-.043-.037-.087-.05-.13a.515.515 0 0 1-.037-.13c-.006-.044-.006-.087-.006-.137v-.093a.992.992 0 0 1 .031-.13c.013-.043.025-.086.044-.13.024-.043.043-.087.074-.13.105-.298.105-.54-.087-.682a.706.706 0 0 0-.118-.062c-.024-.006-.055-.018-.08-.025l-.05-.018a.847.847 0 0 0-.13-.031.472.472 0 0 0-.13-.019 1.01 1.01 0 0 0-.136-.012c-.031 0-.062.006-.093.006a.484.484 0 0 0-.137.019c-.043.006-.086.012-.13.024a1.068 1.068 0 0 0-.13.044c-.043.018-.08.037-.124.056-.037.018-.074.043-.118.062-1.444.942-.582 3.148.403 3.787-.372.068-.75.148-.855.229l-.013.012c.267.161.546.298.837.416.397.13.818.247 1.004.297v.006a5.996 5.996 0 0 0 1.562.112c2.746-.192 4.996-2.281 5.405-5.033l.037.161c.019.112.043.23.056.347v.006c.012.056.018.112.025.162v.024c.006.056.012.112.012.162.006.068.012.136.012.204v.1c0 .03.007.067.007.098 0 .038-.007.075-.007.112v.087c0 .043-.006.08-.006.124 0 .025 0 .05-.006.08 0 .044-.006.087-.006.137-.006.018-.006.037-.006.055l-.02.143c0 .019 0 .037-.005.056-.007.062-.019.118-.025.18v.012l-.037.174v.018l-.037.167c0 .007-.007.02-.007.025a1.663 1.663 0 0 1-.043.168v.018c-.019.062-.037.118-.05.174-.006.006-.006.012-.006.012l-.056.186c-.024.062-.043.118-.068.18-.025.062-.043.124-.068.18-.025.062-.05.117-.074.18h-.007c-.024.055-.05.117-.08.173a.302.302 0 0 1-.019.043c-.006.006-.006.013-.012.019a5.867 5.867 0 0 1-1.742 2.082c-.05.031-.099.069-.149.106-.012.012-.03.018-.043.03a2.603 2.603 0 0 1-.136.094l.018.037h.007l.26-.037h.006c.161-.025.322-.056.483-.087.044-.006.093-.019.137-.031l.087-.019c.043-.006.086-.018.13-.024.037-.013.074-.02.111-.031.62-.15 1.221-.354 1.798-.595a9.926 9.926 0 0 1-3.85 3.142c.714-.05 1.426-.167 2.114-.366a9.903 9.903 0 0 0 5.857-4.68 9.893 9.893 0 0 1-1.667 3.986 9.758 9.758 0 0 0 1.655-1.376 9.824 9.824 0 0 0 2.61-5.268c.21.98.272 1.99.18 2.987 4.474-6.241.371-12.712-1.346-14.416-.006-.013-.012-.019-.012-.031-.006.006-.006.006-.006.012 0-.006 0-.006-.007-.012 0 .074-.006.148-.012.223a8.34 8.34 0 0 1-.062.415c-.03.136-.068.273-.105.41-.044.13-.093.266-.15.396a5.322 5.322 0 0 1-.185.378 4.735 4.735 0 0 1-.477.688c-.093.111-.192.21-.292.31a3.994 3.994 0 0 1-.18.155l-.142.124a3.459 3.459 0 0 1-.347.241 4.295 4.295 0 0 1-.366.211c-.13.062-.26.118-.39.174a4.364 4.364 0 0 1-.818.223c-.143.025-.285.037-.422.05a4.914 4.914 0 0 1-.297.012 4.66 4.66 0 0 1-.422-.025 3.137 3.137 0 0 1-.421-.062 3.136 3.136 0 0 1-.415-.105h-.007c.137-.013.273-.025.41-.05a4.493 4.493 0 0 0 .818-.223c.136-.05.266-.112.39-.174.13-.062.248-.13.372-.204.118-.08.235-.161.347-.248.112-.087.217-.18.316-.279.105-.093.198-.198.291-.304.093-.111.18-.223.26-.334.013-.019.026-.044.038-.062.062-.1.124-.199.18-.298a4.272 4.272 0 0 0 .334-.775c.044-.13.075-.266.106-.403.025-.142.05-.278.062-.415.012-.142.025-.285.025-.421 0-.1-.007-.199-.013-.298a6.726 6.726 0 0 0-.05-.415 4.493 4.493 0 0 0-.092-.415c-.044-.13-.087-.267-.137-.397-.05-.13-.111-.26-.173-.384-.069-.124-.137-.248-.211-.366a6.843 6.843 0 0 0-.248-.34c-.093-.106-.186-.212-.285-.317a3.878 3.878 0 0 0-.161-.155c-.28-.217-.57-.421-.862-.607a1.154 1.154 0 0 0-.124-.062 2.415 2.415 0 0 0-.589-.26Z" fill="currentColor"/></symbol>
    <symbol id="icoMongodb" viewBox="0 0 24 24"><path d="M17.193 9.555c-1.264-5.58-4.252-7.414-4.573-8.115-.28-.394-.53-.954-.735-1.44-.036.495-.055.685-.523 1.184-.723.566-4.438 3.682-4.74 10.02-.282 5.912 4.27 9.435 4.888 9.884l.07.05A73.49 73.49 0 0111.91 24h.481c.114-1.032.284-2.056.51-3.07.417-.296.604-.463.85-.693a11.342 11.342 0 003.639-8.464c.01-.814-.103-1.662-.197-2.218zm-5.336 8.195s0-8.291.275-8.29c.213 0 .49 10.695.49 10.695-.381-.045-.765-1.76-.765-2.405z" fill="currentColor"/></symbol>
    <symbol id="icoMariadb" viewBox="0 0 24 24"><path d="M23.157 4.412c-.676.284-.79.31-1.673.372-.65.045-.757.057-1.212.209-.75.246-1.395.75-2.02 1.59-.296.398-1.249 1.913-1.249 1.988 0 .057-.65.998-.915 1.32-.574.713-1.08 1.079-2.14 1.59-.77.36-1.224.524-4.102 1.477-1.073.353-2.133.738-2.367.864-.852.449-1.515 1.036-2.203 1.938-1.003 1.32-.972 1.313-3.042.947a12.264 12.264 0 00-.675-.063c-.644-.05-1.023.044-1.332.334L0 17.193l.177.088c.094.05.353.234.561.398.215.17.461.347.55.391.088.044.17.088.183.101.012.013-.089.17-.228.353-.435.581-.593.871-.574 1.048.019.164.032.17.43.17.517-.006.826-.056 1.261-.208.65-.233 2.058-.94 2.784-1.4.776-.5 1.717-.998 1.956-1.042.082-.02.354-.07.594-.114.58-.107 1.464-.095 2.587.05.108.013.373.045.6.064.227.025.43.057.454.076.026.012.474.037.998.056.934.026 1.104.007 1.3-.189.126-.133.385-.631.498-.985.209-.643.417-.921.366-.492-.113.966-.322 1.692-.713 2.411-.259.499-.663 1.092-.934 1.395-.322.347-.315.36.088.315.619-.063 1.471-.397 2.096-.82.827-.562 1.647-1.691 2.19-3.03.107-.27.22-.22.183.083-.013.094-.038.315-.057.498l-.031.328.353-.202c.833-.48 1.414-1.262 2.127-2.884.227-.518.877-2.922 1.073-3.976a9.64 9.64 0 01.271-1.042c.127-.429.196-.555.48-.858.183-.19.625-.555.978-.808.72-.505.953-.75 1.187-1.205.208-.417.284-1.13.132-1.357-.132-.202-.284-.196-.763.006Z" fill="currentColor"/></symbol>
    <symbol id="icoKubernetes" viewBox="0 0 24 24"><path d="M10.204 14.35l.007.01-.999 2.413a5.171 5.171 0 0 1-2.075-2.597l2.578-.437.004.005a.44.44 0 0 1 .484.606zm-.833-2.129a.44.44 0 0 0 .173-.756l.002-.011L7.585 9.7a5.143 5.143 0 0 0-.73 3.255l2.514-.725.002-.009zm1.145-1.98a.44.44 0 0 0 .699-.337l.01-.005.15-2.62a5.144 5.144 0 0 0-3.01 1.442l2.147 1.523.004-.002zm.76 2.75l.723.349.722-.347.18-.78-.5-.623h-.804l-.5.623.179.779zm1.5-3.095a.44.44 0 0 0 .7.336l.008.003 2.134-1.513a5.188 5.188 0 0 0-2.992-1.442l.148 2.615.002.001zm10.876 5.97l-5.773 7.181a1.6 1.6 0 0 1-1.248.594l-9.261.003a1.6 1.6 0 0 1-1.247-.596l-5.776-7.18a1.583 1.583 0 0 1-.307-1.34L2.1 5.573c.108-.47.425-.864.863-1.073L11.305.513a1.606 1.606 0 0 1 1.385 0l8.345 3.985c.438.209.755.604.863 1.073l2.062 8.955c.108.47-.005.963-.308 1.34zm-3.289-2.057c-.042-.01-.103-.026-.145-.034-.174-.033-.315-.025-.479-.038-.35-.037-.638-.067-.895-.148-.105-.04-.18-.165-.216-.216l-.201-.059a6.45 6.45 0 0 0-.105-2.332 6.465 6.465 0 0 0-.936-2.163c.052-.047.15-.133.177-.159.008-.09.001-.183.094-.282.197-.185.444-.338.743-.522.142-.084.273-.137.415-.242.032-.024.076-.062.11-.089.24-.191.295-.52.123-.736-.172-.216-.506-.236-.745-.045-.034.027-.08.062-.111.088-.134.116-.217.23-.33.35-.246.25-.45.458-.673.609-.097.056-.239.037-.303.033l-.19.135a6.545 6.545 0 0 0-4.146-2.003l-.012-.223c-.065-.062-.143-.115-.163-.25-.022-.268.015-.557.057-.905.023-.163.061-.298.068-.475.001-.04-.001-.099-.001-.142 0-.306-.224-.555-.5-.555-.275 0-.499.249-.499.555l.001.014c0 .041-.002.092 0 .128.006.177.044.312.067.475.042.348.078.637.056.906a.545.545 0 0 1-.162.258l-.012.211a6.424 6.424 0 0 0-4.166 2.003 8.373 8.373 0 0 1-.18-.128c-.09.012-.18.04-.297-.029-.223-.15-.427-.358-.673-.608-.113-.12-.195-.234-.329-.349-.03-.026-.077-.062-.111-.088a.594.594 0 0 0-.348-.132.481.481 0 0 0-.398.176c-.172.216-.117.546.123.737l.007.005.104.083c.142.105.272.159.414.242.299.185.546.338.743.522.076.082.09.226.1.288l.16.143a6.462 6.462 0 0 0-1.02 4.506l-.208.06c-.055.072-.133.184-.215.217-.257.081-.546.11-.895.147-.164.014-.305.006-.48.039-.037.007-.09.02-.133.03l-.004.002-.007.002c-.295.071-.484.342-.423.608.061.267.349.429.645.365l.007-.001.01-.003.129-.029c.17-.046.294-.113.448-.172.33-.118.604-.217.87-.256.112-.009.23.069.288.101l.217-.037a6.5 6.5 0 0 0 2.88 3.596l-.09.218c.033.084.069.199.044.282-.097.252-.263.517-.452.813-.091.136-.185.242-.268.399-.02.037-.045.095-.064.134-.128.275-.034.591.213.71.248.12.556-.007.69-.282v-.002c.02-.039.046-.09.062-.127.07-.162.094-.301.144-.458.132-.332.205-.68.387-.897.05-.06.13-.082.215-.105l.113-.205a6.453 6.453 0 0 0 4.609.012l.106.192c.086.028.18.042.256.155.136.232.229.507.342.84.05.156.074.295.145.457.016.037.043.09.062.129.133.276.442.402.69.282.247-.118.341-.435.213-.71-.02-.039-.045-.096-.065-.134-.083-.156-.177-.261-.268-.398-.19-.296-.346-.541-.443-.793-.04-.13.007-.21.038-.294-.018-.022-.059-.144-.083-.202a6.499 6.499 0 0 0 2.88-3.622c.064.01.176.03.213.038.075-.05.144-.114.28-.104.266.039.54.138.87.256.154.06.277.128.448.173.036.01.088.019.13.028l.009.003.007.001c.297.064.584-.098.645-.365.06-.266-.128-.537-.423-.608zM16.4 9.701l-1.95 1.746v.005a.44.44 0 0 0 .173.757l.003.01 2.526.728a5.199 5.199 0 0 0-.108-1.674A5.208 5.208 0 0 0 16.4 9.7zm-4.013 5.325a.437.437 0 0 0-.404-.232.44.44 0 0 0-.372.233h-.002l-1.268 2.292a5.164 5.164 0 0 0 3.326.003l-1.27-2.296h-.01zm1.888-1.293a.44.44 0 0 0-.27.036.44.44 0 0 0-.214.572l-.003.004 1.01 2.438a5.15 5.15 0 0 0 2.081-2.615l-2.6-.44-.004.005z" fill="currentColor"/></symbol>
    <symbol id="icoDocker" viewBox="0 0 24 24"><path d="M13.983 11.078h2.119a.186.186 0 00.186-.185V9.006a.186.186 0 00-.186-.186h-2.119a.185.185 0 00-.185.185v1.888c0 .102.083.185.185.185m-2.954-5.43h2.118a.186.186 0 00.186-.186V3.574a.186.186 0 00-.186-.185h-2.118a.185.185 0 00-.185.185v1.888c0 .102.082.185.185.185m0 2.716h2.118a.187.187 0 00.186-.186V6.29a.186.186 0 00-.186-.185h-2.118a.185.185 0 00-.185.185v1.887c0 .102.082.185.185.186m-2.93 0h2.12a.186.186 0 00.184-.186V6.29a.185.185 0 00-.185-.185H8.1a.185.185 0 00-.185.185v1.887c0 .102.083.185.185.186m-2.964 0h2.119a.186.186 0 00.185-.186V6.29a.185.185 0 00-.185-.185H5.136a.186.186 0 00-.186.185v1.887c0 .102.084.185.186.186m5.893 2.715h2.118a.186.186 0 00.186-.185V9.006a.186.186 0 00-.186-.186h-2.118a.185.185 0 00-.185.185v1.888c0 .102.082.185.185.185m-2.93 0h2.12a.185.185 0 00.184-.185V9.006a.185.185 0 00-.184-.186h-2.12a.185.185 0 00-.184.185v1.888c0 .102.083.185.185.185m-2.964 0h2.119a.185.185 0 00.185-.185V9.006a.185.185 0 00-.184-.186h-2.12a.186.186 0 00-.186.186v1.887c0 .102.084.185.186.185m-2.92 0h2.12a.185.185 0 00.184-.185V9.006a.185.185 0 00-.184-.186h-2.12a.185.185 0 00-.184.185v1.888c0 .102.082.185.185.185M23.763 9.89c-.065-.051-.672-.51-1.954-.51-.338.001-.676.03-1.01.087-.248-1.7-1.653-2.53-1.716-2.566l-.344-.199-.226.327c-.284.438-.49.922-.612 1.43-.23.97-.09 1.882.403 2.661-.595.332-1.55.413-1.744.42H.751a.751.751 0 00-.75.748 11.376 11.376 0 00.692 4.062c.545 1.428 1.355 2.48 2.41 3.124 1.18.723 3.1 1.137 5.275 1.137.983.003 1.963-.086 2.93-.266a12.248 12.248 0 003.823-1.389c.98-.567 1.86-1.288 2.61-2.136 1.252-1.418 1.998-2.997 2.553-4.4h.221c1.372 0 2.215-.549 2.68-1.009.309-.293.55-.65.707-1.046l.098-.288Z" fill="currentColor"/></symbol>
    <symbol id="icoAws" viewBox="0 0 24 24"><path d="M6.763 10.036c0 .296.032.535.088.71.064.176.144.368.256.576.04.063.056.127.056.183 0 .08-.048.16-.152.24l-.503.335a.383.383 0 0 1-.208.072c-.08 0-.16-.04-.239-.112a2.47 2.47 0 0 1-.287-.375 6.18 6.18 0 0 1-.248-.471c-.622.734-1.405 1.101-2.347 1.101-.67 0-1.205-.191-1.596-.574-.391-.384-.59-.894-.59-1.533 0-.678.239-1.23.726-1.644.487-.415 1.133-.623 1.955-.623.272 0 .551.024.846.064.296.04.6.104.918.176v-.583c0-.607-.127-1.03-.375-1.277-.255-.248-.686-.367-1.3-.367-.28 0-.568.031-.863.103-.295.072-.583.16-.862.272a2.287 2.287 0 0 1-.28.104.488.488 0 0 1-.127.023c-.112 0-.168-.08-.168-.247v-.391c0-.128.016-.224.056-.28a.597.597 0 0 1 .224-.167c.279-.144.614-.264 1.005-.36a4.84 4.84 0 0 1 1.246-.151c.95 0 1.644.216 2.091.647.439.43.662 1.085.662 1.963v2.586zm-3.24 1.214c.263 0 .534-.048.822-.144.287-.096.543-.271.758-.51.128-.152.224-.32.272-.512.047-.191.08-.423.08-.694v-.335a6.66 6.66 0 0 0-.735-.136 6.02 6.02 0 0 0-.75-.048c-.535 0-.926.104-1.19.32-.263.215-.39.518-.39.917 0 .375.095.655.295.846.191.2.47.296.838.296zm6.41.862c-.144 0-.24-.024-.304-.08-.064-.048-.12-.16-.168-.311L7.586 5.55a1.398 1.398 0 0 1-.072-.32c0-.128.064-.2.191-.2h.783c.151 0 .255.025.31.08.065.048.113.16.16.312l1.342 5.284 1.245-5.284c.04-.16.088-.264.151-.312a.549.549 0 0 1 .32-.08h.638c.152 0 .256.025.32.08.063.048.12.16.151.312l1.261 5.348 1.381-5.348c.048-.16.104-.264.16-.312a.52.52 0 0 1 .311-.08h.743c.127 0 .2.065.2.2 0 .04-.009.08-.017.128a1.137 1.137 0 0 1-.056.2l-1.923 6.17c-.048.16-.104.263-.168.311a.51.51 0 0 1-.303.08h-.687c-.151 0-.255-.024-.32-.08-.063-.056-.119-.16-.15-.32l-1.238-5.148-1.23 5.14c-.04.16-.087.264-.15.32-.065.056-.177.08-.32.08zm10.256.215c-.415 0-.83-.048-1.229-.143-.399-.096-.71-.2-.918-.32-.128-.071-.215-.151-.247-.223a.563.563 0 0 1-.048-.224v-.407c0-.167.064-.247.183-.247.048 0 .096.008.144.024.048.016.12.048.2.08.271.12.566.215.878.279.319.064.63.096.95.096.502 0 .894-.088 1.165-.264a.86.86 0 0 0 .415-.758.777.777 0 0 0-.215-.559c-.144-.151-.416-.287-.807-.415l-1.157-.36c-.583-.183-1.014-.454-1.277-.813a1.902 1.902 0 0 1-.4-1.158c0-.335.073-.63.216-.886.144-.255.335-.479.575-.654.24-.184.51-.32.83-.415.32-.096.655-.136 1.006-.136.175 0 .359.008.535.032.183.024.35.056.518.088.16.04.312.08.455.127.144.048.256.096.336.144a.69.69 0 0 1 .24.2.43.43 0 0 1 .071.263v.375c0 .168-.064.256-.184.256a.83.83 0 0 1-.303-.096 3.652 3.652 0 0 0-1.532-.311c-.455 0-.815.071-1.062.223-.248.152-.375.383-.375.71 0 .224.08.416.24.567.159.152.454.304.877.44l1.134.358c.574.184.99.44 1.237.767.247.327.367.702.367 1.117 0 .343-.072.655-.207.926-.144.272-.336.511-.583.703-.248.2-.543.343-.886.447-.36.111-.734.167-1.142.167zM21.698 16.207c-2.626 1.94-6.442 2.969-9.722 2.969-4.598 0-8.74-1.7-11.87-4.526-.247-.223-.024-.527.272-.351 3.384 1.963 7.559 3.153 11.877 3.153 2.914 0 6.114-.607 9.06-1.852.439-.2.814.287.383.607zM22.792 14.961c-.336-.43-2.22-.207-3.074-.103-.255.032-.295-.192-.063-.36 1.5-1.053 3.967-.75 4.254-.399.287.36-.08 2.826-1.485 4.007-.215.184-.423.088-.327-.151.32-.79 1.03-2.57.695-2.994z" fill="currentColor"/></symbol>
    <symbol id="icoGit" viewBox="0 0 24 24"><path d="M23.546 10.93L13.067.452c-.604-.603-1.582-.603-2.188 0L8.708 2.627l2.76 2.76c.645-.215 1.379-.07 1.889.441.516.515.658 1.258.438 1.9l2.658 2.66c.645-.223 1.387-.078 1.9.435.721.72.721 1.884 0 2.604-.719.719-1.881.719-2.6 0-.539-.541-.674-1.337-.404-1.996L12.86 8.955v6.525c.176.086.342.203.488.348.713.721.713 1.883 0 2.6-.719.721-1.889.721-2.609 0-.719-.719-.719-1.879 0-2.598.182-.18.387-.316.605-.406V8.835c-.217-.091-.424-.222-.6-.401-.545-.545-.676-1.342-.396-2.009L7.636 3.7.45 10.881c-.6.605-.6 1.584 0 2.189l10.48 10.477c.604.604 1.582.604 2.186 0l10.43-10.43c.605-.603.605-1.582 0-2.187" fill="currentColor"/></symbol>
    <symbol id="icoGithub" viewBox="0 0 24 24"><path d="M12 .297c-6.63 0-12 5.373-12 12 0 5.303 3.438 9.8 8.205 11.385.6.113.82-.258.82-.577 0-.285-.01-1.04-.015-2.04-3.338.724-4.042-1.61-4.042-1.61C4.422 18.07 3.633 17.7 3.633 17.7c-1.087-.744.084-.729.084-.729 1.205.084 1.838 1.236 1.838 1.236 1.07 1.835 2.809 1.305 3.495.998.108-.776.417-1.305.76-1.605-2.665-.3-5.466-1.332-5.466-5.93 0-1.31.465-2.38 1.235-3.22-.135-.303-.54-1.523.105-3.176 0 0 1.005-.322 3.3 1.23.96-.267 1.98-.399 3-.405 1.02.006 2.04.138 3 .405 2.28-1.552 3.285-1.23 3.285-1.23.645 1.653.24 2.873.12 3.176.765.84 1.23 1.91 1.23 3.22 0 4.61-2.805 5.625-5.475 5.92.42.36.81 1.096.81 2.22 0 1.606-.015 2.896-.015 3.286 0 .315.21.69.825.57C20.565 22.092 24 17.592 24 12.297c0-6.627-5.373-12-12-12" fill="currentColor"/></symbol>
    <symbol id="icoVscode" viewBox="0 0 24 24"><path d="M23.15 2.587L18.21.21a1.494 1.494 0 0 0-1.705.29l-9.46 8.63-4.12-3.128a.999.999 0 0 0-1.276.057L.327 7.261A1 1 0 0 0 .326 8.74L3.899 12 .326 15.26a1 1 0 0 0 .001 1.479L1.65 17.94a.999.999 0 0 0 1.276.057l4.12-3.128 9.46 8.63a1.492 1.492 0 0 0 1.704.29l4.942-2.377A1.5 1.5 0 0 0 24 20.06V3.939a1.5 1.5 0 0 0-.85-1.352zm-5.146 14.861L10.826 12l7.178-5.448v10.896z" fill="currentColor"/></symbol>
    <g id="icoDb" fill="none" stroke="currentColor" stroke-width="1.3" stroke-linecap="round" stroke-linejoin="round">
      <ellipse cx="7" cy="3.5" rx="6" ry="2"/>
      <path d="M1,3.5 v7 a6,2 0 0,0 12,0 v-7"/>
    </g>
    <g id="icoCloud" fill="none" stroke="currentColor" stroke-width="1.3" stroke-linejoin="round" stroke-linecap="round">
      <path d="M4,11 h7 a3,3 0 0,0 0,-6 a4,4 0 0,0 -7.5,-1 a3,3 0 0,0 0.5,7 Z"/>
    </g>

    <style>
      .title   { font: 700 46px monospace; fill: #f2f2f2; letter-spacing: 6px; text-anchor: middle; }
      .sub     { font: 400 16px monospace; fill: #b5b5b5; text-anchor: middle; }
      .pillTxt { font: 700 13px monospace; fill: #0a0a0a; letter-spacing: 3px; text-anchor: middle; }
      .h2      { font: 700 20px monospace; fill: #c1121f; letter-spacing: 4px; text-anchor: middle; }
      .label   { font: 700 11px monospace; fill: #7a7a7a; letter-spacing: 3px; text-anchor: middle; }
      .panelTxt{ font: 400 14px monospace; fill: #d0d0d0; }
      .panelKey{ font: 700 14px monospace; fill: #8a8a8a; }
      .chipTxt { font: 600 13px monospace; fill: #e8e8e8; }
      .sign    { font: 700 14px monospace; fill: #7a7a7a; letter-spacing: 2px; text-anchor: middle; }
      .bar     { fill: #1a1a1a; }
      .barFill { fill: #8a8a8a; }
      .drop    { stroke-linecap: round; }
    </style>
  </defs>

  <!-- backdrop -->
  <rect width="900" height="1180" fill="url(#bg)"/>
  <rect width="900" height="1180" fill="url(#glow)"/>

  <!-- header -->
  <text x="450" y="110" class="title" filter="url(#textGlow)">AARON</text>
  <text x="450" y="145" class="sub">Application Developer · Working best after dark</text>

  <line x1="60" y1="180" x2="840" y2="180" stroke="#2b2b2b" stroke-width="1"/>

  <!-- system panel -->
  <rect x="150" y="205" width="600" height="170" rx="10" fill="#0d0d0d" stroke="#8a8a8a" stroke-width="1" opacity="0.94"/>
  <rect x="151" y="206" width="598" height="35" rx="9" fill="#1a1a1a"/>
  <circle cx="174" cy="223" r="5" fill="#c1121f"/>
  <circle cx="191" cy="223" r="5" fill="#d6a21e"/>
  <circle cx="208" cy="223" r="5" fill="#5b9a58"/>
  <line x1="150" y1="241" x2="750" y2="241" stroke="#2b2b2b"/>
  <text x="450" y="229" class="panelTxt" font-weight="700" fill="#c1121f" text-anchor="middle">SYSTEM ONLINE</text>
  <text x="175" y="267" class="panelTxt"><tspan class="panelKey">Identity  </tspan><tspan fill="#c1121f"> Aaron</tspan></text>
  <text x="175" y="291" class="panelTxt"><tspan class="panelKey">Location  </tspan><tspan fill="#c1121f"> HIDDEN</tspan></text>
  <text x="175" y="315" class="panelTxt"><tspan class="panelKey">Role      </tspan><tspan fill="#c1121f"> Application Developer</tspan></text>
  <text x="175" y="339" class="panelTxt"><tspan class="panelKey">Status    </tspan><tspan fill="#c1121f"> Building</tspan></text>
  <text x="175" y="363" class="panelTxt"><tspan class="panelKey">Mission   </tspan><tspan fill="#c1121f"> Unknown</tspan></text>

  <!-- stack -->
  <rect x="150" y="390" width="600" height="235" rx="10" fill="#0d0d0d" stroke="#8a8a8a" stroke-width="1" opacity="0.94"/>
  <rect x="151" y="391" width="598" height="34" rx="9" fill="#1a1a1a"/>
  <circle cx="174" cy="408" r="5" fill="#c1121f"/>
  <circle cx="191" cy="408" r="5" fill="#d6a21e"/>
  <circle cx="208" cy="408" r="5" fill="#5b9a58"/>
  <line x1="150" y1="425" x2="750" y2="425" stroke="#2b2b2b"/>
  <text x="450" y="413" class="panelTxt" font-weight="700" fill="#c1121f" text-anchor="middle">ARSENAL</text>
  <g color="#c1121f">
    <rect x="251" y="440" width="50" height="50" rx="11" fill="#1a1a1a" stroke="#c1121f"/><use href="#icoTypescript" x="263" y="452" width="26" height="26"/>
    <rect x="309" y="440" width="50" height="50" rx="11" fill="#1a1a1a" stroke="#c1121f"/><use href="#icoReact" x="321" y="452" width="26" height="26"/>
    <rect x="367" y="440" width="50" height="50" rx="11" fill="#1a1a1a" stroke="#c1121f"/><use href="#icoNextjs" x="379" y="452" width="26" height="26"/>
    <rect x="425" y="440" width="50" height="50" rx="11" fill="#1a1a1a" stroke="#c1121f"/><use href="#icoAngular" x="437" y="452" width="26" height="26"/>
    <rect x="483" y="440" width="50" height="50" rx="11" fill="#1a1a1a" stroke="#c1121f"/><use href="#icoStencil" x="495" y="452" width="26" height="26"/>
    <rect x="541" y="440" width="50" height="50" rx="11" fill="#1a1a1a" stroke="#c1121f"/><use href="#icoSass" x="553" y="452" width="26" height="26"/>
    <rect x="599" y="440" width="50" height="50" rx="11" fill="#0d0d0d" stroke="#8a8a8a"/><use href="#icoJava" x="611" y="452" width="26" height="26" color="#8a8a8a"/>
  </g>

  <g color="#8a8a8a">
    <rect x="276" y="498" width="50" height="50" rx="11" fill="#0d0d0d" stroke="#8a8a8a"/><use href="#icoGolang" x="288" y="510" width="26" height="26"/>
    <rect x="334" y="498" width="50" height="50" rx="11" fill="#0d0d0d" stroke="#8a8a8a"/><use href="#icoNestjs" x="346" y="510" width="26" height="26"/>
    <rect x="392" y="498" width="50" height="50" rx="11" fill="#0d0d0d" stroke="#8a8a8a"/><use href="#icoDb" x="404" y="510" width="26" height="26"/>
    <rect x="450" y="498" width="50" height="50" rx="11" fill="#0d0d0d" stroke="#8a8a8a"/><use href="#icoMongodb" x="462" y="510" width="26" height="26"/>
    <rect x="508" y="498" width="50" height="50" rx="11" fill="#0d0d0d" stroke="#8a8a8a"/><use href="#icoMariadb" x="520" y="510" width="26" height="26"/>
    <rect x="566" y="498" width="50" height="50" rx="11" fill="#0d0d0d" stroke="#8a8a8a"/><use href="#icoKubernetes" x="578" y="510" width="26" height="26"/>
  </g>

  <g color="#8a8a8a">
    <rect x="276" y="556" width="50" height="50" rx="11" fill="#0d0d0d" stroke="#8a8a8a"/><use href="#icoDocker" x="288" y="568" width="26" height="26"/>
    <rect x="334" y="556" width="50" height="50" rx="11" fill="#0d0d0d" stroke="#8a8a8a"/><use href="#icoCloud" x="346" y="568" width="26" height="26"/>
    <rect x="392" y="556" width="50" height="50" rx="11" fill="#0d0d0d" stroke="#8a8a8a"/><use href="#icoAws" x="404" y="568" width="26" height="26"/>
    <rect x="450" y="556" width="50" height="50" rx="11" fill="#c1121f" stroke="#c1121f"/><use href="#icoGit" x="462" y="568" width="26" height="26" color="#0a0a0a"/>
    <rect x="508" y="556" width="50" height="50" rx="11" fill="#000000" stroke="#e8e8e8"/><use href="#icoGithub" x="520" y="568" width="26" height="26" color="#e8e8e8"/>
    <rect x="566" y="556" width="50" height="50" rx="11" fill="#1a1a1a" stroke="#c1121f"/><use href="#icoVscode" x="578" y="568" width="26" height="26" color="#c1121f"/>
  </g>

  <!-- currently learning -->
  <text x="450" y="691" class="h2">CURRENTLY LEARNING</text>
  <g font-family="monospace" font-size="12" fill="#a8a8a8">
    <text x="150" y="725">GOLANG / NEST.JS</text>
    <rect x="360" y="713" width="390" height="10" class="bar"/><rect x="360" y="713" width="370" height="10" class="barFill"/>

    <text x="150" y="750">KUBERNETES / DOCKER</text>
    <rect x="360" y="738" width="390" height="10" class="bar"/><rect x="360" y="738" width="330" height="10" class="barFill"/>

    <text x="150" y="775">IAC / AWS</text>
    <rect x="360" y="763" width="390" height="10" class="bar"/><rect x="360" y="763" width="250" height="10" class="barFill"/>

    <text x="150" y="800">SOFTWARE ARCHITECTURE</text>
    <rect x="360" y="788" width="390" height="10" class="bar"/><rect x="360" y="788" width="220" height="10" class="barFill"/>

    <text x="150" y="825">TESTING</text>
    <rect x="360" y="813" width="390" height="10" class="bar"/><rect x="360" y="813" width="190" height="10" class="barFill"/>
  </g>

  <!-- mission -->
  <text x="450" y="875" class="h2">THE MISSION</text>
  <text x="450" y="905" class="sub" letter-spacing="2">LEARN  →  BUILD  →  BREAK  →  FIX  →  REPEAT</text>
  <text x="450" y="945" class="pillTxt" fill="#c1121f">KEEP BUILDING.</text>

  <line x1="60" y1="990" x2="840" y2="990" stroke="#2b2b2b" stroke-width="1"/>
  <text x="450" y="1020" class="sign">AARON — APPLICATION DEVELOPMENT · SOFTWARE · BUILDING</text>

  <!-- rain -->
  <g class="drop" stroke="#8fa3b3" stroke-width="2" opacity="0.35">
    <line x1="30" y1="-40" x2="24" y2="-10"><animate attributeName="y1" values="-40;1220" dur="1.1s" begin="-0.2s" repeatCount="indefinite"/><animate attributeName="y2" values="-10;1250" dur="1.1s" begin="-0.2s" repeatCount="indefinite"/></line>
    <line x1="95" y1="-40" x2="89" y2="-10"><animate attributeName="y1" values="-40;1220" dur="1.4s" begin="-0.9s" repeatCount="indefinite"/><animate attributeName="y2" values="-10;1250" dur="1.4s" begin="-0.9s" repeatCount="indefinite"/></line>
    <line x1="160" y1="-40" x2="154" y2="-10"><animate attributeName="y1" values="-40;1220" dur="1.0s" begin="-0.5s" repeatCount="indefinite"/><animate attributeName="y2" values="-10;1250" dur="1.0s" begin="-0.5s" repeatCount="indefinite"/></line>
    <line x1="225" y1="-40" x2="219" y2="-10"><animate attributeName="y1" values="-40;1220" dur="1.6s" begin="-1.1s" repeatCount="indefinite"/><animate attributeName="y2" values="-10;1250" dur="1.6s" begin="-1.1s" repeatCount="indefinite"/></line>
    <line x1="290" y1="-40" x2="284" y2="-10"><animate attributeName="y1" values="-40;1220" dur="1.2s" begin="-0.3s" repeatCount="indefinite"/><animate attributeName="y2" values="-10;1250" dur="1.2s" begin="-0.3s" repeatCount="indefinite"/></line>
    <line x1="355" y1="-40" x2="349" y2="-10"><animate attributeName="y1" values="-40;1220" dur="1.5s" begin="-0.7s" repeatCount="indefinite"/><animate attributeName="y2" values="-10;1250" dur="1.5s" begin="-0.7s" repeatCount="indefinite"/></line>
    <line x1="420" y1="-40" x2="414" y2="-10"><animate attributeName="y1" values="-40;1220" dur="1.1s" begin="-1.3s" repeatCount="indefinite"/><animate attributeName="y2" values="-10;1250" dur="1.1s" begin="-1.3s" repeatCount="indefinite"/></line>
    <line x1="485" y1="-40" x2="479" y2="-10"><animate attributeName="y1" values="-40;1220" dur="1.3s" begin="-0.4s" repeatCount="indefinite"/><animate attributeName="y2" values="-10;1250" dur="1.3s" begin="-0.4s" repeatCount="indefinite"/></line>
    <line x1="550" y1="-40" x2="544" y2="-10"><animate attributeName="y1" values="-40;1220" dur="1.0s" begin="-0.8s" repeatCount="indefinite"/><animate attributeName="y2" values="-10;1250" dur="1.0s" begin="-0.8s" repeatCount="indefinite"/></line>
    <line x1="615" y1="-40" x2="609" y2="-10"><animate attributeName="y1" values="-40;1220" dur="1.45s" begin="-1.0s" repeatCount="indefinite"/><animate attributeName="y2" values="-10;1250" dur="1.45s" begin="-1.0s" repeatCount="indefinite"/></line>
    <line x1="680" y1="-40" x2="674" y2="-10"><animate attributeName="y1" values="-40;1220" dur="1.2s" begin="-0.6s" repeatCount="indefinite"/><animate attributeName="y2" values="-10;1250" dur="1.2s" begin="-0.6s" repeatCount="indefinite"/></line>
    <line x1="745" y1="-40" x2="739" y2="-10"><animate attributeName="y1" values="-40;1220" dur="1.35s" begin="-0.1s" repeatCount="indefinite"/><animate attributeName="y2" values="-10;1250" dur="1.35s" begin="-0.1s" repeatCount="indefinite"/></line>
    <line x1="810" y1="-40" x2="804" y2="-10"><animate attributeName="y1" values="-40;1220" dur="1.05s" begin="-1.2s" repeatCount="indefinite"/><animate attributeName="y2" values="-10;1250" dur="1.05s" begin="-1.2s" repeatCount="indefinite"/></line>
    <line x1="870" y1="-40" x2="864" y2="-10"><animate attributeName="y1" values="-40;1220" dur="1.5s" begin="-0.35s" repeatCount="indefinite"/><animate attributeName="y2" values="-10;1250" dur="1.5s" begin="-0.35s" repeatCount="indefinite"/></line>
  </g>

  <g class="drop" stroke="#d0d0d0" stroke-width="1" opacity="0.16">
    <line x1="52" y1="-80" x2="48" y2="-55"><animate attributeName="y1" values="-80;1220" dur="0.85s" begin="-0.2s" repeatCount="indefinite"/><animate attributeName="y2" values="-55;1245" dur="0.85s" begin="-0.2s" repeatCount="indefinite"/></line>
    <line x1="178" y1="-80" x2="174" y2="-55"><animate attributeName="y1" values="-80;1220" dur="1.05s" begin="-0.7s" repeatCount="indefinite"/><animate attributeName="y2" values="-55;1245" dur="1.05s" begin="-0.7s" repeatCount="indefinite"/></line>
    <line x1="304" y1="-80" x2="300" y2="-55"><animate attributeName="y1" values="-80;1220" dur="0.95s" begin="-0.45s" repeatCount="indefinite"/><animate attributeName="y2" values="-55;1245" dur="0.95s" begin="-0.45s" repeatCount="indefinite"/></line>
    <line x1="430" y1="-80" x2="426" y2="-55"><animate attributeName="y1" values="-80;1220" dur="1.15s" begin="-0.9s" repeatCount="indefinite"/><animate attributeName="y2" values="-55;1245" dur="1.15s" begin="-0.9s" repeatCount="indefinite"/></line>
    <line x1="556" y1="-80" x2="552" y2="-55"><animate attributeName="y1" values="-80;1220" dur="0.9s" begin="-0.35s" repeatCount="indefinite"/><animate attributeName="y2" values="-55;1245" dur="0.9s" begin="-0.35s" repeatCount="indefinite"/></line>
    <line x1="682" y1="-80" x2="678" y2="-55"><animate attributeName="y1" values="-80;1220" dur="1.1s" begin="-0.8s" repeatCount="indefinite"/><animate attributeName="y2" values="-55;1245" dur="1.1s" begin="-0.8s" repeatCount="indefinite"/></line>
    <line x1="808" y1="-80" x2="804" y2="-55"><animate attributeName="y1" values="-80;1220" dur="1s" begin="-0.55s" repeatCount="indefinite"/><animate attributeName="y2" values="-55;1245" dur="1s" begin="-0.55s" repeatCount="indefinite"/></line>
  </g>

  <g class="drop" stroke="#c1121f" stroke-width="2" opacity="0.22">
    <line x1="60" y1="-60" x2="54" y2="-30"><animate attributeName="y1" values="-60;1220" dur="1.7s" begin="-0.9s" repeatCount="indefinite"/><animate attributeName="y2" values="-30;1250" dur="1.7s" begin="-0.9s" repeatCount="indefinite"/></line>
    <line x1="260" y1="-60" x2="254" y2="-30"><animate attributeName="y1" values="-60;1220" dur="1.9s" begin="-0.4s" repeatCount="indefinite"/><animate attributeName="y2" values="-30;1250" dur="1.9s" begin="-0.4s" repeatCount="indefinite"/></line>
    <line x1="460" y1="-60" x2="454" y2="-30"><animate attributeName="y1" values="-60;1220" dur="1.6s" begin="-1.3s" repeatCount="indefinite"/><animate attributeName="y2" values="-30;1250" dur="1.6s" begin="-1.3s" repeatCount="indefinite"/></line>
    <line x1="660" y1="-60" x2="654" y2="-30"><animate attributeName="y1" values="-60;1220" dur="1.8s" begin="-0.6s" repeatCount="indefinite"/><animate attributeName="y2" values="-30;1250" dur="1.8s" begin="-0.6s" repeatCount="indefinite"/></line>
    <line x1="840" y1="-60" x2="834" y2="-30"><animate attributeName="y1" values="-60;1220" dur="1.65s" begin="-1.0s" repeatCount="indefinite"/><animate attributeName="y2" values="-30;1250" dur="1.65s" begin="-1.0s" repeatCount="indefinite"/></line>
  </g>

  <g pointer-events="none">
    <rect width="900" height="1180" fill="#ffffff" opacity="0" mask="url(#thunderMask)">
      <animate attributeName="opacity" values="0;0;0.11;0.006;0.07;0.01;0.1;0.006;0.055;0;0" keyTimes="0;0.68;0.70;0.72;0.74;0.76;0.78;0.80;0.82;0.85;1" dur="16s" begin="-11.6s" repeatCount="indefinite"/>
    </rect>
    <rect width="900" height="1180" fill="#ffffff" opacity="0" mask="url(#thunderMask)">
      <animate attributeName="opacity" values="0;0;0;0.07;0.006;0.045;0.01;0.09;0.005;0.035;0" keyTimes="0;0.75;0.77;0.79;0.81;0.83;0.85;0.87;0.89;0.92;1" dur="24s" begin="-18.8s" repeatCount="indefinite"/>
    </rect>
  </g>
</svg>
